<?xml version="1.0" encoding="utf-8"?>
<!-- Generator: Adobe Illustrator 26.0.1, SVG Export Plug-In . SVG Version: 6.00 Build 0)  -->
<svg version="1.1" id="Layer_1" xmlns="http://www.w3.org/2000/svg" xmlns:xlink="http://www.w3.org/1999/xlink" x="0px" y="0px"
	 viewBox="0 0 128 128" style="enable-background:new 0 0 128 128;" xml:space="preserve">
<style type="text/css">
	.st0{fill:#FF59B9;}
	.st1{clip-path:url(#SVGID_00000043427917341121058260000000793282794495111309_);}
	.st2{fill-rule:evenodd;clip-rule:evenodd;fill:#FF001B;}
	.st3{fill:#FC0000;}
</style>
<path class="st0" d="M128,64c0,35.3-28.7,64-64,64S0,99.3,0,64S28.7,0,64,0S128,28.7,128,64"/>
<g>
	<defs>
		<rect id="SVGID_1_" x="23.7" y="25" width="80.6" height="78"/>
	</defs>
	<clipPath id="SVGID_00000176042956191098651700000003243644877128127634_">
		<use xlink:href="#SVGID_1_"  style="overflow:visible;"/>
	</clipPath>
	<g style="clip-path:url(#SVGID_00000176042956191098651700000003243644877128127634_);">
		<path class="st2" d="M79.1,70.2c0,0.1-0.8,2.5-3.1,4.8c-2.1,2.1-5.9,4.6-12.1,4.6c-6.2,0-10-2.5-12.1-4.6
			c-2.3-2.3-3.1-4.7-3.1-4.8c-0.3-0.8,0.2-1.7,1-2c0.8-0.3,1.7,0.2,2,1c0.1,0.3,2.5,7.2,12.2,7.2s12.1-6.9,12.2-7.2
			c0.3-0.8,1.2-1.3,2-1C79,68.5,79.4,69.4,79.1,70.2L79.1,70.2z M50.9,56.8c-0.8-0.4-1.2-1.3-0.8-2.1c0.3-0.8,1.3-1.2,2.1-0.8
			l6.1,2.7c0.6,0.3,0.9,0.8,0.9,1.4c0,0.6-0.4,1.2-0.9,1.4l-6.1,2.7c-0.2,0.1-0.4,0.1-0.6,0.1c-0.6,0-1.2-0.4-1.4-0.9
			c-0.4-0.8,0-1.7,0.8-2.1l2.8-1.2L50.9,56.8z M73.2,53.6c2.3,0,4.1,1.9,4.1,4.1c0,2.3-1.9,4.1-4.1,4.1s-4.1-1.9-4.1-4.1
			C69.1,55.5,70.9,53.6,73.2,53.6z M102,62.2c2.1-2.1,2.9-5.1,2-7.9c-0.9-2.8-3.3-4.8-6.2-5.2l-16.1-2.3c-1.5-0.2-2.8-1.1-3.4-2.5
			l-7.2-14.6c-1.3-2.7-4-4.3-6.9-4.3c-3,0-5.6,1.6-6.9,4.3l-7.2,14.6c-0.7,1.3-1.9,2.3-3.4,2.5L30.3,49c-2.9,0.4-5.3,2.4-6.2,5.2
			s-0.2,5.8,2,7.9l11.7,11.4c1.1,1,1.6,2.6,1.3,4l-2.8,16c-0.5,2.9,0.7,5.8,3.1,7.5c1.4,1,2.9,1.5,4.5,1.5c1.2,0,2.5-0.3,3.6-0.9
			l14.4-7.6c1.3-0.7,2.9-0.7,4.2,0l14.4,7.6c2.6,1.4,5.7,1.2,8.1-0.6c2.4-1.7,3.6-4.6,3.1-7.5l-2.8-16c-0.3-1.5,0.2-3,1.3-4
			L102,62.2z"/>
	</g>
</g>
<g>
	<g>
		<path class="st3" d="M27.8,25.7c0.2,0.3,0.4,0.6,0.5,1c0.1,0.4,0.2,0.9,0.2,1.3c0,0.5-0.1,1-0.3,1.4c-0.2,0.5-0.5,0.9-1,1.3
			c-0.3,0.3-0.7,0.5-1,0.7c-0.4,0.2-0.7,0.3-1.1,0.3c-0.4,0-0.8,0-1.2-0.1c-0.4-0.1-0.8-0.2-1.2-0.4c-0.4-0.2-0.8-0.4-1.2-0.7
			c-0.4-0.3-0.8-0.6-1.2-1c-0.6-0.6-1.1-1.3-1.4-1.9c-0.3-0.7-0.5-1.3-0.5-2c0-0.7,0.1-1.3,0.4-1.9c0.3-0.6,0.7-1.1,1.2-1.5
			c0.6-0.5,1.3-0.9,2-1c0.7-0.1,1.4-0.1,1.9,0.2c0.6,0.2,1,0.5,1.3,0.9c0.2,0.2,0.2,0.4,0.2,0.7c0,0.2-0.1,0.4-0.3,0.6
			c-0.2,0.1-0.4,0.2-0.6,0.2c-0.2,0-0.4-0.1-0.8-0.3c-0.5-0.3-1-0.4-1.5-0.4c-0.4,0-0.9,0.2-1.3,0.5c-0.6,0.5-0.9,1.2-0.8,2.1
			c0.1,0.8,0.6,1.7,1.4,2.7c0.6,0.6,1.1,1.1,1.7,1.4c0.5,0.3,1,0.4,1.5,0.4c0.5,0,0.9-0.2,1.2-0.5c0.4-0.3,0.6-0.7,0.7-1.2
			c0.1-0.5,0-1-0.2-1.6c-0.1-0.3-0.2-0.5-0.2-0.7c0-0.2,0.1-0.4,0.3-0.6c0.2-0.1,0.4-0.2,0.6-0.1C27.5,25.4,27.7,25.5,27.8,25.7z"/>
		<path class="st3" d="M27.1,18.5c1.5,2.2,2.9,4.4,4.4,6.7c1-0.7,2-1.3,3-1.9c0.2-0.1,0.5-0.2,0.7-0.1c0.2,0.1,0.4,0.2,0.5,0.5
			c0.1,0.2,0.2,0.5,0.1,0.7c0,0.2-0.2,0.4-0.4,0.5c-1.2,0.7-2.3,1.4-3.5,2.2c-0.3,0.2-0.6,0.3-0.8,0.2c-0.3-0.1-0.5-0.3-0.8-0.7
			c-1.6-2.3-3.2-4.6-4.8-6.9c-0.3-0.4-0.4-0.7-0.4-1c0-0.3,0.2-0.5,0.4-0.7c0.3-0.2,0.5-0.2,0.8-0.1C26.6,17.9,26.9,18.1,27.1,18.5z
			"/>
		<path class="st3" d="M36.6,22.9c-1.4-2.5-2.7-5.1-4.1-7.6c-0.2-0.4-0.3-0.7-0.2-1c0.1-0.3,0.2-0.5,0.5-0.6c0.3-0.1,0.5-0.1,0.8,0
			c0.3,0.1,0.5,0.4,0.7,0.8c1.3,2.6,2.6,5.2,3.8,7.7c0.2,0.4,0.3,0.7,0.2,1c0,0.3-0.2,0.5-0.4,0.6c-0.2,0.1-0.4,0.1-0.7,0
			C37.1,23.5,36.9,23.3,36.6,22.9z"/>
		<path class="st3" d="M45.8,16.5c0.1,0.3,0.2,0.7,0.2,1.1c0,0.4-0.1,0.9-0.2,1.3c-0.1,0.5-0.4,0.9-0.7,1.2
			c-0.3,0.4-0.7,0.7-1.3,0.9c-0.4,0.2-0.8,0.2-1.2,0.3c-0.4,0-0.7,0-1.1-0.1c-0.4-0.1-0.7-0.3-1.1-0.5c-0.3-0.2-0.7-0.5-1-0.8
			c-0.3-0.3-0.6-0.7-0.9-1.1c-0.3-0.4-0.5-0.9-0.8-1.3c-0.4-0.8-0.6-1.6-0.7-2.3c-0.1-0.7,0-1.4,0.1-2c0.2-0.6,0.5-1.2,0.9-1.6
			c0.4-0.5,0.9-0.8,1.6-1c0.7-0.3,1.5-0.4,2.2-0.2c0.7,0.1,1.3,0.4,1.7,0.8c0.5,0.4,0.8,0.8,0.9,1.3c0.1,0.2,0.1,0.5,0,0.7
			c-0.1,0.2-0.2,0.4-0.4,0.4c-0.2,0.1-0.4,0.1-0.6,0c-0.2-0.1-0.4-0.3-0.6-0.5c-0.4-0.4-0.8-0.7-1.2-0.9c-0.4-0.1-0.8-0.1-1.3,0.1
			c-0.7,0.3-1.2,0.8-1.4,1.7c-0.2,0.8,0,1.8,0.5,3c0.3,0.8,0.7,1.4,1.1,1.8c0.4,0.4,0.8,0.7,1.2,0.9c0.4,0.1,0.8,0.1,1.3,0
			c0.5-0.2,0.8-0.5,1-0.9c0.2-0.4,0.3-0.9,0.3-1.6c0-0.3,0-0.5,0-0.8c0-0.2,0.2-0.4,0.4-0.4c0.2-0.1,0.4,0,0.6,0.1
			C45.6,16.1,45.7,16.3,45.8,16.5z"/>
		<path class="st3" d="M47.4,9.5c0.3,1.2,0.6,2.5,1,3.7c0.8-1.8,1.6-3.5,2.6-5.2c0.1-0.3,0.3-0.4,0.4-0.6c0.1-0.1,0.3-0.2,0.5-0.2
			c0.3-0.1,0.5,0,0.7,0.2c0.2,0.2,0.3,0.4,0.4,0.6c0.1,0.3,0,0.7-0.3,1c-0.6,1-1.2,2-1.7,2.9c1.1,1.3,2.2,2.6,3.3,3.9
			c0.2,0.3,0.4,0.5,0.5,0.7c0.1,0.2,0.2,0.4,0.2,0.6c0,0.2,0,0.5-0.1,0.7c-0.1,0.2-0.3,0.3-0.5,0.4c-0.2,0-0.4,0-0.6-0.1
			c-0.2-0.1-0.3-0.3-0.5-0.4c-0.1-0.2-0.3-0.4-0.4-0.5c-0.9-1.2-1.9-2.4-2.9-3.5c-0.3,0.7-0.7,1.4-1,2c0.2,0.7,0.4,1.5,0.6,2.2
			c0.1,0.4,0.1,0.8,0,1c-0.1,0.3-0.3,0.4-0.5,0.5c-0.1,0-0.3,0-0.4,0c-0.2-0.1-0.3-0.2-0.4-0.3c-0.1-0.1-0.2-0.3-0.2-0.4
			c-0.1-0.2-0.1-0.4-0.2-0.8c-0.8-2.6-1.5-5.2-2.3-7.8c-0.1-0.4-0.1-0.8,0-1c0.1-0.3,0.3-0.4,0.6-0.5c0.3-0.1,0.5,0,0.8,0.1
			C47.1,8.7,47.3,9,47.4,9.5z"/>
		<path class="st3" d="M64,7.9c-1.2,0-2.5,0-3.7,0.1c0.1,0.9,0.1,1.9,0.2,2.8c1-0.1,2-0.1,3-0.1c0.3,0,0.5,0.1,0.6,0.2
			c0.1,0.2,0.2,0.4,0.2,0.6c0,0.3-0.1,0.5-0.2,0.6c-0.1,0.2-0.3,0.2-0.6,0.2c-1,0-1.9,0.1-2.9,0.1c0.1,1.2,0.1,2.4,0.2,3.6
			c0,0.5,0,0.8-0.2,1c-0.1,0.2-0.3,0.4-0.6,0.4c-0.2,0-0.4-0.1-0.6-0.3c-0.2-0.2-0.3-0.5-0.3-1c-0.3-2.8-0.5-5.6-0.8-8.4
			c0-0.3,0-0.6,0.1-0.8c0.1-0.2,0.2-0.4,0.3-0.5c0.2-0.1,0.4-0.2,0.7-0.2c1.5-0.1,3-0.2,4.6-0.2c0.3,0,0.5,0.1,0.7,0.2
			c0.1,0.2,0.2,0.4,0.2,0.6c0,0.3-0.1,0.5-0.2,0.6C64.6,7.8,64.3,7.9,64,7.9z"/>
		<path class="st3" d="M70.6,6.3c1,0.1,1.8,0.4,2.5,1c0.6,0.5,1.1,1.3,1.3,2.2c0.2,0.9,0.2,1.9,0.1,3c-0.1,0.8-0.3,1.6-0.6,2.2
			c-0.3,0.7-0.6,1.2-1,1.7c-0.4,0.5-0.9,0.8-1.4,1c-0.5,0.2-1.1,0.3-1.7,0.2C69,17.5,68.5,17.3,68,17c-0.5-0.3-0.9-0.7-1.2-1.2
			c-0.3-0.5-0.6-1.1-0.7-1.8c-0.2-0.7-0.2-1.5-0.2-2.3c0-0.8,0.1-1.6,0.4-2.3c0.2-0.7,0.5-1.3,0.9-1.8c0.4-0.5,0.9-0.8,1.5-1.1
			C69.2,6.3,69.9,6.2,70.6,6.3z M72.6,12.1c0.1-0.8,0.1-1.5-0.1-2.1c-0.1-0.6-0.4-1.1-0.8-1.4C71.4,8.3,71,8.1,70.5,8
			c-0.4,0-0.7,0-1.1,0.2c-0.3,0.1-0.6,0.4-0.9,0.7c-0.2,0.3-0.5,0.7-0.6,1.2c-0.2,0.5-0.2,1-0.3,1.7c0,0.6,0,1.2,0.1,1.7
			c0.1,0.5,0.2,0.9,0.4,1.3c0.2,0.3,0.4,0.6,0.7,0.8c0.3,0.2,0.6,0.3,0.9,0.3c0.4,0,0.8-0.1,1.2-0.3c0.4-0.2,0.7-0.6,1-1.2
			C72.3,13.7,72.5,13,72.6,12.1z"/>
		<path class="st3" d="M78.1,13.9c-0.2,0-0.4-0.1-0.6-0.1c-0.2,1.1-0.5,2.3-0.7,3.4c-0.1,0.5-0.2,0.8-0.4,1
			c-0.2,0.2-0.4,0.3-0.6,0.2c-0.3-0.1-0.4-0.2-0.5-0.5c-0.1-0.3-0.1-0.6,0-1c0.5-2.8,1-5.5,1.5-8.3c0.1-0.5,0.2-0.8,0.5-1
			c0.2-0.2,0.5-0.2,1-0.1c1,0.2,2.1,0.4,3.1,0.7c0.4,0.1,0.8,0.2,1.1,0.3C82.6,8.7,82.8,8.9,83,9c0.3,0.2,0.4,0.5,0.6,0.8
			c0.1,0.3,0.2,0.7,0.2,1c0,0.4,0,0.8-0.2,1.1c-0.2,0.8-0.6,1.3-1.1,1.7c-0.5,0.4-1.1,0.5-1.9,0.5c0.3,0.3,0.5,0.7,0.6,1.1
			c0.2,0.5,0.3,1,0.4,1.5c0.1,0.5,0.1,0.9,0.1,1.3c0,0.4,0,0.7-0.1,0.8c0,0.1-0.1,0.3-0.2,0.4c-0.1,0.1-0.2,0.2-0.4,0.2
			c-0.1,0-0.3,0-0.4,0c-0.2-0.1-0.3-0.2-0.4-0.3c-0.1-0.1-0.2-0.3-0.2-0.5c0-0.2-0.1-0.5-0.2-0.9c-0.1-0.5-0.2-1.1-0.3-1.6
			c-0.1-0.6-0.2-1-0.3-1.4c-0.1-0.3-0.3-0.6-0.5-0.7C78.7,14.1,78.4,14,78.1,13.9z M80.2,9.7c-0.6-0.1-1.1-0.3-1.7-0.4
			c-0.2,1-0.4,2-0.6,2.9c0.5,0.1,1.1,0.2,1.6,0.4c0.4,0.1,0.8,0.1,1.1,0.1c0.3,0,0.6-0.1,0.8-0.3c0.2-0.2,0.4-0.4,0.5-0.8
			c0.1-0.3,0.1-0.6,0-0.8c-0.1-0.3-0.2-0.5-0.4-0.6C81.3,10,80.8,9.9,80.2,9.7z"/>
		<path class="st3" d="M94.1,14.8c-1.1-0.6-2.3-1.1-3.5-1.6c-0.4,0.9-0.7,1.7-1.1,2.6c0.9,0.4,1.9,0.8,2.8,1.3
			c0.3,0.1,0.4,0.3,0.5,0.5c0.1,0.2,0,0.4-0.1,0.6c-0.1,0.2-0.3,0.4-0.5,0.4c-0.2,0.1-0.4,0-0.7-0.1c-0.9-0.4-1.8-0.8-2.7-1.2
			c-0.5,1.1-0.9,2.2-1.4,3.3c-0.2,0.4-0.4,0.7-0.6,0.8c-0.2,0.1-0.5,0.2-0.7,0.1c-0.2-0.1-0.4-0.3-0.4-0.5c-0.1-0.3,0-0.6,0.2-1
			c1-2.6,2-5.2,3.1-7.8c0.1-0.3,0.2-0.5,0.4-0.7c0.2-0.2,0.3-0.2,0.5-0.3c0.2,0,0.4,0,0.7,0.1c1.4,0.6,2.9,1.2,4.3,1.9
			c0.3,0.1,0.5,0.3,0.5,0.5c0.1,0.2,0,0.4-0.1,0.7c-0.1,0.2-0.3,0.4-0.5,0.5C94.6,14.9,94.4,14.9,94.1,14.8z"/>
		<path class="st3" d="M94,20c0.8-1.5,1.7-3.1,2.5-4.6c0.2-0.4,0.4-0.6,0.7-0.8c0.3-0.1,0.5-0.1,0.8,0.1c0.3,0.2,0.4,0.4,0.5,0.7
			c0,0.3,0,0.6-0.3,1c-0.9,1.6-1.8,3.1-2.7,4.7c-0.3,0.5-0.5,1-0.6,1.4c-0.1,0.4-0.1,0.8,0,1.1c0.1,0.3,0.4,0.6,0.8,0.9
			c0.6,0.4,1.1,0.4,1.6,0.2c0.5-0.2,1-0.7,1.5-1.5c1-1.5,2-3,3-4.5c0.2-0.4,0.5-0.6,0.8-0.7c0.3-0.1,0.5,0,0.8,0.1
			c0.3,0.2,0.4,0.4,0.4,0.7c0,0.3-0.1,0.6-0.4,1c-1,1.4-2,2.9-3,4.3c-0.5,0.7-1,1.2-1.4,1.6c-0.4,0.4-0.9,0.7-1.5,0.8
			c-0.5,0.1-0.9,0.2-1.3,0.1c-0.4-0.1-0.9-0.3-1.3-0.5c-0.5-0.3-1-0.7-1.3-1.1c-0.3-0.4-0.5-0.8-0.6-1.3c-0.1-0.5,0-1,0.1-1.6
			C93.3,21.4,93.6,20.7,94,20z"/>
		<path class="st3" d="M107.2,22.6c-0.4,2.5-0.8,4.9-1.4,7.3c1.5-1.6,2.9-3.2,4.4-4.8c0.3-0.3,0.6-0.5,0.8-0.5c0.3,0,0.5,0,0.7,0.2
			c0.2,0.2,0.3,0.4,0.3,0.7c0,0.3-0.2,0.6-0.5,0.9c-2,2.1-4,4.1-6,6.2c-0.7,0.7-1.2,0.8-1.7,0.4c-0.1-0.1-0.2-0.2-0.3-0.4
			c-0.1-0.1-0.1-0.3-0.1-0.4c0-0.2,0-0.3,0.1-0.5c0-0.2,0.1-0.4,0.1-0.6c0.6-2.3,1.1-4.7,1.5-7.1c-1.3,1.7-2.7,3.3-4,5
			c-0.3,0.3-0.5,0.5-0.8,0.6c-0.3,0.1-0.5,0-0.7-0.1c-0.2-0.1-0.3-0.4-0.3-0.6c0-0.3,0.1-0.6,0.4-0.9c1.7-2.2,3.4-4.5,5.1-6.7
			c0.2-0.3,0.4-0.5,0.6-0.6c0.2-0.1,0.4-0.2,0.7-0.2c0.2,0,0.5,0.1,0.6,0.2c0.1,0.1,0.2,0.2,0.3,0.4c0.1,0.1,0.1,0.3,0.1,0.4
			c0,0.1,0,0.3,0,0.5C107.3,22.1,107.3,22.3,107.2,22.6z"/>
	</g>
</g>
</svg>
