<?xml version="1.0" encoding="UTF-8"?>
<svg width="512pt" height="512pt" version="1.1" viewBox="0 0 512 512" xmlns="http://www.w3.org/2000/svg">
 <g fill="#fff">
  <path d="m431.72 206.86h-103.29c-13.848 0-25.125 11.273-25.125 25.133v31.492c0 13.797 27.211 41.02 41.016 41.02h87.398c13.855 0 25.125-11.27 25.125-25.129v-47.387c0.003906-13.855-11.27-25.129-25.125-25.129zm-87.398 85.223c-0.21094 0-0.47266-0.078125-0.70703-0.10938l-27.883-37.273v-10.371l35.738 47.754zm18.801 0-47.059-62.883c0.51562-2.3086 1.6641-4.3789 3.2578-6.0273l51.562 68.906-7.7617-0.003906zm19.414 0-54.449-72.766c0.11719-0.003906 0.22656-0.035156 0.34375-0.035156h7.3867l54.48 72.797-7.7617-0.003906zm19.418 0-54.484-72.797h7.7617l54.48 72.797zm19.402 0-54.477-72.797h7.7617l54.488 72.797zm17.672-2.3477-52.727-70.449h7.7617l49.07 65.57c-0.94141 1.9609-2.3516 3.6406-4.1055 4.8789zm5.3906-18.723-38.703-51.727h7.7617l30.941 41.355zm0-25.949-19.285-25.777h6.5898c0.43359 0 0.84375 0.085938 1.2656 0.12109l11.43 15.281-0.007813 10.375z"/>
  <path d="m450.93 331.95h-157.34l-24.781-55.461c-4.3359-11.051-24.074-12.199-27.969-0.16016l-0.21875 0.56641-24.621 55.051-157.34 0.003906c-22.508 0-31.387-14.719-32.945-22.508l-0.11719-1.2188-0.003906-128.8h458.39l-0.11328 130.03c-1.5586 7.7852-10.445 22.504-32.938 22.504zm-149.29-12.418h149.29c15.949 0 19.867-9.5234 20.633-12.094v-115.6h-433.55v115.62c0.72266 2.4414 4.5938 12.074 20.645 12.074h149.28l21.246-47.523c8.4844-22.148 42.426-21.812 51.184-0.0625z"/>
  <path d="m181.14 206.86h-103.29c-13.848 0-25.125 11.273-25.125 25.133v47.387c0 13.859 11.273 25.129 25.125 25.129h87.402c13.797 0 41.012-27.219 41.012-41.02v-31.492c0-13.863-11.273-25.137-25.129-25.137zm-103.29 85.223c-1.0234 0-1.9961-0.14844-2.9492-0.375l-9.75-13.035v-10.375l17.809 23.789h-5.1094zm11.301 0-23.996-32.07v-10.379l31.758 42.449zm13.969 0-37.965-50.738v-9.3555c0-0.30859 0.066407-0.59375 0.097657-0.89453l45.633 60.988zm13.961 0-49.977-66.785c1.125-1.8008 2.6797-3.2656 4.5312-4.3203l53.207 71.105zm13.965 0-54.387-72.676c0.39844-0.039062 0.78516-0.12109 1.1914-0.12109h6.4805l54.477 72.797zm13.969 0-54.48-72.797h7.7617l54.48 72.797zm20.234 0h-6.2734l-54.469-72.797h7.7578l54.312 72.582c-0.48438 0.12109-0.93359 0.21484-1.3281 0.21484zm5.8516-2.4688-52.633-70.328h7.7617l49.852 66.633c-1.7266 1.4375-3.4141 2.6953-4.9805 3.6953zm8.7305-6.9844-47.406-63.352h7.7656l44.082 58.902c-1.4258 1.5273-2.9219 3.0273-4.4414 4.4492zm7.7969-8.25-41.23-55.098h7.7617l37.328 49.891c-1.0312 1.6211-2.3516 3.3906-3.8594 5.207zm6.2109-10.895c0 0.13281-0.0625 0.30078-0.070312 0.44531l-33.414-44.645h7.7617l25.723 34.371zm0-18.125-19.516-26.082h6.8164c0.35156 0 0.67969 0.070312 1.0234 0.10156l11.68 15.602z"/>
 </g>
</svg>
