<?xml version="1.0" encoding="UTF-8"?>
<svg width="512pt" height="512pt" version="1.1" viewBox="0 0 512 512" xmlns="http://www.w3.org/2000/svg">
 <g fill="#fff">
  <path d="m413.18 242.69c7.168-6.6562 9.2148-16.895 6.1445-26.113-3.0703-9.2148-10.754-15.871-20.48-17.406l-75.777-10.754c-5.1211-0.51172-9.2148-3.5859-11.266-8.1914l-33.793-68.609c-4.0977-8.7031-12.801-13.824-22.527-13.824s-18.434 5.6328-22.527 13.824l-33.277 68.609c-2.0469 4.6094-6.6562 7.6797-11.266 8.1914l-75.773 11.266c-9.7266 1.5352-17.406 8.1914-20.48 17.406-3.0703 9.2148-0.51172 18.945 6.1445 26.113l54.785 53.246c3.5859 3.5859 5.1211 8.1914 4.0977 13.312l-12.801 75.266c-1.5352 9.7266 2.0469 18.945 10.238 24.574 4.6094 3.0703 9.7266 4.6094 14.848 4.6094 4.0977 0 8.1914-1.0234 11.777-3.0703l67.586-35.328c4.6094-2.5586 9.7266-2.5586 13.824 0l67.586 35.328c8.7031 4.6094 18.945 3.5859 26.625-2.0469 7.6797-5.6328 11.777-15.359 10.238-24.574l-12.801-75.266c-1.0234-4.6094 1.0234-9.7266 4.0977-13.312zm-69.121 68.609 12.801 75.266c1.0234 5.6328-1.0234 11.266-6.1445 14.848-4.6094 3.5859-10.754 4.0977-15.871 1.0234l-67.586-35.328c-7.168-4.0977-16.383-4.0977-23.551 0l-67.586 35.328c-5.1211 2.5586-11.266 2.0469-15.871-1.0234-4.6094-3.5859-7.168-8.7031-6.1445-14.848l12.801-75.266c1.5352-8.1914-1.5352-16.383-7.168-22.527l-53.758-53.25c-4.0977-4.0977-5.6328-9.7266-3.5859-15.359 2.0469-5.6328 6.1445-9.2148 12.289-10.238l75.777-10.754c8.1914-1.0234 15.359-6.1445 18.945-13.824l33.793-68.609c2.5586-5.1211 7.6797-8.1914 13.312-8.1914s10.754 3.0703 13.312 8.1914l33.793 68.609c3.5859 7.6797 10.754 12.801 18.945 13.824l75.258 10.754c5.6328 1.0234 10.238 4.6094 12.289 10.238 2.0469 5.6328 0.51172 11.266-3.5859 15.359l-54.785 53.25c-6.1406 5.6289-8.7031 14.336-7.6797 22.527z"/>
  <path d="m237.57 242.69c0 6.7852-5.5 12.289-12.285 12.289-6.7891 0-12.289-5.5039-12.289-12.289s5.5-12.289 12.289-12.289c6.7852 0 12.285 5.5039 12.285 12.289"/>
  <path d="m295.43 242.69c0 6.7852-5.5039 12.289-12.289 12.289-6.7891 0-12.289-5.5039-12.289-12.289s5.5-12.289 12.289-12.289c6.7852 0 12.289 5.5039 12.289 12.289"/>
  <path d="m290.3 282.62c-35.328 32.258-70.656 1.5352-72.191 0-2.0469-2.0469-5.1211-1.5352-7.168 0.51172-2.0469 2.0469-1.5352 5.1211 0.51172 7.168 0 0 18.941 16.895 44.543 16.895 12.801 0 27.137-4.0977 41.473-16.895 2.0469-2.0469 2.0469-5.1211 0.51172-7.168s-5.6328-2.5625-7.6797-0.51172z"/>
 </g>
</svg>
