<?xml version="1.0" encoding="UTF-8"?>
<svg width="512pt" height="512pt" version="1.1" viewBox="0 0 512 512" xmlns="http://www.w3.org/2000/svg">
 <g fill="#fff">
  <path d="m437.25 119.3-75.777 43.52 0.003906-68.098c0-45.055-36.352-81.922-81.922-81.922-35.328 0-65.023 22.527-76.801 53.762-11.266-31.23-41.473-53.762-76.801-53.762-45.055 0-81.922 36.352-81.922 81.922v199.17c0 15.871 12.801 28.672 28.672 28.672h75.777l-59.387 135.68c-6.6562 14.848 0 31.742 14.848 38.398s31.742 0 38.398-14.848l60.93-136.19 60.93 136.19c4.6094 10.754 15.359 17.406 26.625 17.406 4.0977 0 8.1914-1.0234 11.777-2.5586 14.848-6.6562 21.504-23.551 14.848-38.398l-60.934-135.68h75.777c15.871 0 29.184-12.801 29.184-28.672v-39.426l75.777 43.52c13.312 7.6797 30.207-2.0469 30.207-17.406v-143.87c0-15.871-16.898-25.598-30.211-17.406zm-344.06-24.578c0-18.434 14.848-33.281 33.281-33.281s33.281 14.848 33.281 33.281-14.848 33.281-33.281 33.281-33.281-15.359-33.281-33.281zm109.57 174.59c-33.793 0-60.93-27.137-60.93-60.93 0-33.793 27.137-60.93 60.93-60.93 33.793 0 60.93 27.137 60.93 60.93-0.003906 33.793-27.141 60.93-60.93 60.93zm76.797-141.82c-18.434 0-33.281-14.848-33.281-33.281 0.003907-18.43 14.852-32.766 33.281-32.766 18.434 0 33.281 14.848 33.281 33.281 0 18.43-14.848 32.766-33.281 32.766z"/>
  <path d="m194.05 180.73c-5.1211-3.0703-11.777 0.51172-11.777 6.6562v41.984c0 6.1445 6.6562 9.7266 11.777 6.6562l35.328-20.992c5.1211-3.0703 5.1211-10.754 0-13.824z"/>
 </g>
</svg>
