<?xml version="1.0" encoding="UTF-8"?>
<svg width="512pt" height="512pt" version="1.1" viewBox="0 0 512 512" xmlns="http://www.w3.org/2000/svg">
 <g fill="#fff">
  <path d="m106.33 168.66c-5.5 0-10.875 1.6992-15.383 4.7734-4.5078-3.0742-9.8789-4.7734-15.383-4.7734-15.051 0-27.301 12.246-27.301 27.305 0 11.176 6.8047 21.09 16.934 25.238 3.8008 10.742 14.105 18.219 25.75 18.219 11.648 0 21.949-7.4727 25.75-18.219 10.129-4.1484 16.938-14.062 16.938-25.238 0-15.059-12.246-27.305-27.305-27.305zm3.7812 41.793-3.7031 0.96484-0.77344 3.75c-1.4297 6.9219-7.6055 11.945-14.688 11.945-7.082 0-13.258-5.0234-14.688-11.945l-0.77344-3.75-3.7031-0.96484c-6.6016-1.7188-11.215-7.6758-11.215-14.492 0-8.2695 6.7305-15 15-15 4.1562 0 8.0312 1.6797 10.906 4.7305l4.4727 4.7539 4.4805-4.75c2.875-3.0508 6.75-4.7305 10.906-4.7305 8.2734 0 15 6.7266 15 15-0.003906 6.8125-4.6172 12.773-11.223 14.488z"/>
  <path d="m449.62 227.51c2.0781-3.8711 3.2969-8.2422 3.2969-12.863 0-15.055-12.246-27.305-27.301-27.305-4.4609 0-8.8086 1.1641-12.703 3.2266 0.75-2.4961 1.168-5.1289 1.168-7.8398 0-15.055-12.246-27.301-27.305-27.301-3.1992 0-6.3359 0.63672-9.3008 1.7227 0.011719-0.32031 0.070312-0.62891 0.070312-0.95312 0-15.055-12.246-27.301-27.301-27.301-5.5 0-10.875 1.6992-15.383 4.7734-4.5078-3.0742-9.8789-4.7734-15.383-4.7734-8.5234 0-16.141 3.9297-21.148 10.066-5.0117-6.1367-12.629-10.066-21.148-10.066-5.4961 0-10.863 1.6914-15.363 4.7617-4.4961-3.0977-9.8047-4.7617-15.398-4.7617-15.055 0-27.301 12.25-27.301 27.301 0 0.32422 0.0625 0.63281 0.070312 0.95312-2.9688-1.0859-6.1016-1.7227-9.3008-1.7227-15.055 0-27.305 12.246-27.305 27.301 0 1.9688 0.28125 3.875 0.68359 5.7422-2.457-0.72266-5.0156-1.1289-7.6094-1.1289-15.055 0-27.301 12.25-27.301 27.305 0 4.5352 1.168 8.832 3.1758 12.652-9.0312 0.26562-16.301 7.6836-16.301 17.008 0 9.2617 7.5352 16.797 16.797 16.797h7.75l36.598 218.87h-2.0469c-8.7617 0-15.891 7.1289-15.891 16.129 0 8.7617 7.1289 15.891 15.891 15.891h210.31c8.7617 0 15.887-7.1289 15.887-16.129 0-8.7617-7.125-15.891-15.887-15.891h-2.0469l36.598-218.87h7.75c9.2617 0 16.797-7.5352 16.797-17.035-0.003907-8.3438-6.1289-15.266-14.117-16.559zm-209.91-24.773c2.5156-1.9102 5.6172-3.0859 9.0117-3.0859 3.6289 0 7.0039 1.3477 9.7266 3.7109 0.39453 0.33984 0.81641 0.63672 1.1797 1.0234l4.4805 4.75 3.6133-3.8398 0.85938-0.91406c2.875-3.0508 6.7461-4.7305 10.906-4.7305 1.3203 0 2.5781 0.22656 3.7969 0.54688 5.9922 1.5781 10.48 6.75 11.062 13.082 0.042969 0.45703 0.14063 0.89844 0.14063 1.3672 0 3.957-1.5859 7.5898-4.1797 10.309-0.83594 0.875-1.7617 1.6641-2.7969 2.3164l-46.809 0.003906c-1.543-0.97656-2.8867-2.2148-3.9688-3.6562-1.8945-2.5273-3.0078-5.6406-3.0078-8.9727-0.003907-1.3359 1.25-8.5234 5.9844-11.91zm54.141-30.273 2.7031 2.8672 1.7734 1.8828 1.7773-1.8867 2.7031-2.8672c2.1094-2.2344 4.7578-3.7148 7.6562-4.3594 1.0547-0.23437 2.1406-0.37109 3.25-0.37109 8.2695 0 15 6.7266 15 14.996 0 1.0508-0.14453 2.0664-0.35156 3.0625-0.16406 0.78516-0.38672 1.5469-0.66797 2.2812-1.9336-0.43359-3.8984-0.73437-5.9023-0.73437-3.0469 0-5.9648 0.52344-8.7031 1.4492-4.9219 1.6602-9.2266 4.6758-12.445 8.6172-4.0469-4.9609-9.8047-8.4531-16.359-9.6172-1.5586-0.27734-3.1523-0.44922-4.7891-0.44922-3.4414 0-6.8047 0.73437-9.9648 1.9844-0.55078-1.1133-0.96094-2.2969-1.2227-3.5352-0.21094-0.99609-0.35156-2.0156-0.35156-3.0625 0-8.2695 6.7305-14.996 15-14.996 1.1094 0 2.1953 0.13672 3.25 0.37109 2.8867 0.65234 5.5391 2.1328 7.6445 4.3672zm73.695 42.184c0 3.957-1.5859 7.5898-4.1836 10.309-0.83594 0.875-1.7617 1.6641-2.7969 2.3164l-46.801 0.003906c-1.543-0.97656-2.8867-2.2148-3.9688-3.6562-1.8945-2.5273-3.0078-5.6406-3.0078-8.9727 0-1.3359 0.23047-2.6094 0.5625-3.8438 0.875-3.2656 2.8008-6.0781 5.4219-8.0664 2.5156-1.9102 5.6172-3.0859 9.0117-3.0859 3.6328 0 7.0078 1.3477 9.7266 3.707 0.39453 0.33984 0.8125 0.63672 1.1758 1.0234l4.4727 4.7539 3.6211-3.8398 0.85938-0.91016c2.875-3.0508 6.75-4.7305 10.906-4.7305 1.3203 0 2.5781 0.22656 3.8008 0.55078 5.9922 1.582 10.473 6.75 11.059 13.082 0.042969 0.44922 0.14062 0.89063 0.14062 1.3594zm47.164-10.266c2.875-3.0508 6.7461-4.7305 10.906-4.7305 8.2695 0 14.996 6.7305 14.996 15 0 5.2266-2.7305 9.9336-6.9805 12.625h-46.801c-1.543-0.97656-2.8867-2.2148-3.9688-3.6562-1.8945-2.5273-3.0117-5.6406-3.0117-8.9688 0-1.3359 0.23047-2.6094 0.5625-3.8438 0.875-3.2656 2.8008-6.0781 5.4219-8.0664 2.5156-1.9102 5.6172-3.0859 9.0156-3.0859 3.6289 0 7.0039 1.3477 9.7266 3.707 0.39453 0.33984 0.81641 0.64062 1.1797 1.0234l4.4805 4.75zm-43.312-27.164 4.4727-4.7539c2.875-3.0508 6.7461-4.7305 10.902-4.7305 8.2734 0 15 6.7266 15 14.996 0 1.875-0.37891 3.6719-1.0234 5.3477-1.9336-0.43359-3.8984-0.73438-5.8984-0.73438-8.5234 0-16.141 3.9297-21.152 10.066-4.0469-4.957-9.8047-8.4531-16.359-9.6172-1.5586-0.27734-3.1523-0.44922-4.7891-0.44922-3.4883 0-6.8359 0.71875-9.9766 1.957-0.54297-1.1055-0.94922-2.2812-1.207-3.5078-1.6875-14.719 9.8477-20.301 17.895-17.688 2.8984 0.64062 5.5508 2.1211 7.6562 4.3594l2.7031 2.8633zm-51.922-36.02c4.1562 0 8.0312 1.6797 10.906 4.7266l4.4727 4.7539 4.4805-4.75c2.875-3.0508 6.75-4.7305 10.906-4.7305 8.2695 0 14.996 6.7266 14.996 14.996 0 0.29297-0.054688 0.57422-0.074219 0.86328-2.9023-1.0352-5.9727-1.6328-9.1562-1.6328-8.5234 0-16.141 3.9297-21.148 10.066-5.0117-6.1367-12.629-10.066-21.148-10.066-3.1875 0-6.2539 0.59375-9.1562 1.6328-0.015625-0.28906-0.074219-0.57031-0.074219-0.86328 0-8.2656 6.7266-14.996 14.996-14.996zm-73.062 0c4.1562 0 8.0273 1.6797 10.906 4.7305l4.4805 4.75 4.4727-4.7539c2.875-3.0508 6.7461-4.7266 10.906-4.7266 8.2695 0 14.996 6.7266 14.996 14.996 0 0.30469-0.058594 0.59375-0.074219 0.89453-2.9258-1.0508-6.0078-1.6641-9.1562-1.6641-8.5234 0-16.141 3.9297-21.148 10.066-5.0117-6.1367-12.629-10.066-21.148-10.066-3.1445 0-6.2305 0.61328-9.1562 1.6641-0.019532-0.30078-0.074219-0.58984-0.074219-0.89453-0.003906-8.2656 6.7266-14.996 14.996-14.996zm-36.531 26.535c4.1562 0 8.0273 1.6797 10.906 4.7305l4.4805 4.75 1.7734-1.8828 2.7031-2.8672c2.1055-2.2344 4.7578-3.7148 7.6562-4.3594 1.0547-0.23438 2.1406-0.37109 3.25-0.37109 8.2695 0 14.996 6.7266 14.996 14.996 0 1.0508-0.14453 2.0664-0.35156 3.0625-0.16406 0.78516-0.38672 1.5469-0.66797 2.2812-1.9336-0.43359-3.8984-0.73438-5.9023-0.73438-3.0469 0-5.9648 0.52344-8.7031 1.4492-4.9219 1.6602-9.2266 4.6758-12.445 8.6172-5.0117-6.1367-12.629-10.066-21.152-10.066-3.4414 0-6.8008 0.73438-9.9609 1.9844-0.99219-2.0117-1.5742-4.2461-1.5742-6.5977-0.007812-8.2656 6.7188-14.992 14.992-14.992zm-34.227 31.918c4.1562 0 8.0312 1.6797 10.906 4.7305l4.4727 4.7539 3.6211-3.8398 0.85938-0.91016c2.875-3.0508 6.75-4.7305 10.906-4.7305 1.3203 0 2.5781 0.22656 3.8008 0.54688 5.9922 1.582 10.477 6.75 11.062 13.082 0.042969 0.45703 0.14063 0.89844 0.14063 1.3672 0 3.9531-1.5859 7.5898-4.1836 10.309-0.83594 0.875-1.7617 1.6641-2.7969 2.3164h-46.809c-4.2461-2.6914-6.9766-7.3945-6.9766-12.625-0.003906-8.2695 6.7266-15 14.996-15zm167.59 61.457-3.9688 63.988c-10.527-8.7422-24.469-14.125-39.801-14.125-15.328 0-29.27 5.3828-39.797 14.125l-3.9688-63.984zm-8.2578 133.15c-8.8555 8.5312-21.477 13.91-35.508 13.91s-26.648-5.3789-35.504-13.91c-8.0078-7.7148-12.949-17.996-12.949-29.312 0-9.6055 3.5742-18.457 9.5391-25.641 8.8359-10.637 22.965-17.578 38.914-17.578s30.082 6.9375 38.918 17.578c5.9648 7.1836 9.5391 16.035 9.5391 25.641 0 11.32-4.9414 21.602-12.949 29.312zm-86.262-56.973c-5.3359 8.1016-8.4609 17.547-8.4609 27.664 0 12.297 4.582 23.609 12.207 32.695l5.1055 82.336h-18.625l-25.008-218.87h30.059zm16.141 71.371c9.7461 6.4336 21.684 10.273 34.613 10.273s24.867-3.8398 34.617-10.277l-4.4258 71.32-60.379 0.003907zm81.625-11.016c7.6211-9.0859 12.207-20.398 12.207-32.695 0-10.117-3.125-19.559-8.4609-27.664l4.7227-76.18h30.059l-25.008 218.87h-18.625zm-174.86-136.54h30.539l25.012 218.87h-18.957zm233 229.64c2.8281 0 5.125 2.3008 5.125 5.3633 0 2.8281-2.3008 5.125-5.125 5.125h-210.31c-2.8281 0-5.1289-2.3008-5.1289-5.3633 0-2.8281 2.3008-5.125 5.1289-5.125zm-13.902-10.766h-18.953l25.012-218.87h30.539zm56.199-231.45h-203.55c-0.058594-0.070312-0.11328-0.14062-0.17188-0.21094l0.011718 0.21094h-91.195c-2.2852 0-4.2188-1.9336-4.2188-4.457 0-2.2852 1.9336-4.2188 4.2188-4.2188h294.9c2.2852 0 4.2188 1.9336 4.2188 4.457 0.011718 2.2852-1.9219 4.2188-4.2109 4.2188z"/>
  <path d="m234.53 63.52c6.2148 9.8477 18.008 14.574 29.148 12.047 4.6953 3.3438 10.246 5.0547 15.836 5.0547 5.0234 0 10.07-1.3828 14.547-4.2109 12.73-8.0391 16.551-24.934 8.5078-37.66-2.9883-4.7305-7.2266-8.332-12.246-10.477 0.19141-5.4492-1.2422-10.891-4.1797-15.535-3.8945-6.168-9.9531-10.449-17.066-12.059-7.1133-1.6094-14.43-0.34766-20.594 3.5469-9.4531 5.9688-14.199 17.016-12.301 27.793-7.0547 8.9492-7.8711 21.652-1.6523 31.5zm12.668-25.367 2.7578-2.6562-1.168-3.6445c-2.0742-6.5 0.50391-13.582 6.2656-17.219 3.3906-2.1367 7.4062-2.8281 11.312-1.9453 3.9102 0.88281 7.2383 3.2344 9.375 6.6211 2.2188 3.5156 2.8633 7.6875 1.8203 11.746l-1.6289 6.3242 6.4102 1.25c4.1094 0.80078 7.6016 3.1797 9.8203 6.6953 4.4141 6.9922 2.3164 16.273-4.6758 20.688-5.7578 3.6367-13.258 2.9219-18.242-1.7461l-2.793-2.6172-3.582 1.3477c-6.6055 2.4844-14.16-0.050782-17.941-6.0391-3.7734-5.9961-2.8242-13.898 2.2695-18.805z"/>
  <path d="m96.859 151.7c1.0625 0.72656 2.2734 1.0742 3.4688 1.0742 1.957 0 3.8867-0.93359 5.082-2.6641 0.125-0.18359 12.953-18.48 33.812-22.07 13.199-2.2734 27.07 1.7656 41.215 12 2.7539 1.9922 6.6016 1.3711 8.5898-1.3789 1.9922-2.7539 1.375-6.6016-1.3789-8.5898-16.98-12.285-34.023-17.039-50.656-14.133-26.02 4.5469-41.113 26.305-41.746 27.23-1.9062 2.7969-1.1836 6.6133 1.6133 8.5312z"/>
  <path d="m138.71 169.31c2.418 0 4.7227-1.4414 5.7148-3.7969 0.21875-0.51562 5.582-12.668 25.914-12.852 3.3984-0.03125 6.1289-2.8125 6.0977-6.207-0.03125-3.3789-2.7812-6.0977-6.1523-6.0977h-0.054687c-28.992 0.26562-36.918 19.789-37.242 20.617-1.2148 3.1367 0.32422 6.625 3.4375 7.8906 0.75 0.30078 1.5234 0.44531 2.2852 0.44531z"/>
 </g>
</svg>
