<?xml version="1.0" encoding="UTF-8"?>
<svg width="100pt" height="100pt" version="1.1" viewBox="0 0 100 100" xmlns="http://www.w3.org/2000/svg">
 <path d="m34.621 30.711c0.007812-3.9805 2.5273-7.5234 6.2891-8.8359 1.6289-0.57031 3.4141 0.28906 3.9805 1.9219 0.57031 1.6289-0.28906 3.4102-1.918 3.9805-1.2539 0.42969-2.0938 1.6016-2.1016 2.9258 0 1.7266-1.3984 3.125-3.125 3.125-1.7266 0-3.125-1.3984-3.125-3.125zm14.598 4.7422c0.89844-0.003906 1.7539-0.39844 2.3438-1.0781 0.58203-0.68359 1.4336-1.082 2.3359-1.0859 1.7227 0 3.125-1.4023 3.125-3.125 0-1.7266-1.4023-3.125-3.125-3.125-2.6992 0.015626-5.2578 1.1953-7.0234 3.2344-0.80469 0.92187-1 2.2305-0.49219 3.3477 0.50781 1.1172 1.6211 1.832 2.8438 1.832zm7.8125-10.582 0.40625-0.058594c0.89844 0.007812 1.75 0.40625 2.3359 1.0898 0.54297 0.62891 1.3164 1.0156 2.1445 1.0742 0.82812 0.058594 1.6484-0.21875 2.2734-0.76562 0.625-0.54688 1.0078-1.3203 1.0625-2.1484 0.054688-0.83203-0.22656-1.6484-0.77734-2.2734-1.7695-2.0391-4.332-3.2148-7.0312-3.2266-0.42187 0.007812-0.83984 0.046875-1.25 0.11719-1.7109 0.23047-2.9102 1.8047-2.6797 3.5156 0.23047 1.707 1.8047 2.9062 3.5156 2.6758zm28.836 13.727v0.003906c-0.32422 2.5664-1.7109 4.8789-3.8242 6.375l-8.6602 46.227c-0.28125 1.4766-1.5664 2.5469-3.0703 2.5469h-37.5c-1.5039 0-2.7891-1.0703-3.0703-2.5469l-8.3594-44.57c-4.1484-0.91797-7.1523-4.5234-7.3086-8.7695-0.15625-4.25 2.5742-8.0664 6.6445-9.2891 0.53516-1.7656 1.5781-3.3359 3.0039-4.5117-0.70312-2.793-0.074218-5.75 1.707-8.0117 1.7773-2.2656 4.5039-3.5742 7.3828-3.5508 1.6523 0.019531 3.2734 0.48047 4.6875 1.3359 0.62891-0.37109 1.3008-0.66797 1.9961-0.88281 0.9375-3.2656 3.5859-5.7578 6.9023-6.4883 3.3164-0.73047 6.7695 0.41406 8.9883 2.9844 1.4062 0.10547 2.7734 0.53516 3.9883 1.25 1.4141-0.85156 3.0352-1.3086 4.6875-1.3242 5.1758 0 9.375 4.1992 9.375 9.375v0.53125c3.7461 1.3242 6.2539 4.8672 6.25 8.8438v0.53516c4.125 1.4688 6.6914 5.5898 6.1836 9.9414zm-65.555-1.0977c0.015625 0.5625 0.18359 1.1094 0.49219 1.5781 0.0625-0.15625 0.13672-0.30469 0.22656-0.44922 0.59375-0.71484 1.4766-1.1289 2.4062-1.1289h56.195c0.015626-1.5703-1.1445-2.9062-2.7031-3.1016h-0.36719c-0.14844 0-0.29297-0.011719-0.44141-0.03125h-0.42578c-1.1133-0.003907-2.1445-0.59766-2.7031-1.5664-0.55859-0.96484-0.55469-2.1562 0-3.1211 0.28516-0.46875 0.44141-1.0078 0.44531-1.5547-0.007812-0.89062-0.39453-1.7344-1.0625-2.3242-0.66797-0.58594-1.5586-0.86328-2.4414-0.75391-1.207 0.17578-2.4062-0.35156-3.0977-1.3594-0.67578-0.99609-0.72266-2.293-0.11328-3.3359 0.30078-0.48047 0.46094-1.0352 0.46484-1.6016 0-0.82812-0.32812-1.625-0.91406-2.2109-0.58594-0.58594-1.3828-0.91406-2.2109-0.91406-0.89844 0.003906-1.75 0.40234-2.3359 1.0859-0.050781 0.054687-0.11719 0.074218-0.16797 0.12891-0.054688 0.054687-0.070313 0.11719-0.12891 0.16406v0.003906c-0.125 0.089844-0.26172 0.17188-0.40625 0.24219-0.13672 0.097656-0.28125 0.18359-0.42969 0.25781-0.21094 0.082032-0.43359 0.14063-0.66016 0.17188-0.14844 0.039062-0.30078 0.066406-0.45312 0.082031h-0.10547c-0.12891-0.019531-0.25391-0.042969-0.37891-0.078125-0.44141-0.007813-0.86719-0.15625-1.2148-0.42578-0.16406-0.074218-0.31641-0.16406-0.46094-0.26562-0.050781-0.058594-0.097656-0.11719-0.14062-0.17969-0.046876-0.046875-0.11328-0.066406-0.16016-0.11719h0.003907c-0.58594-0.67969-1.4375-1.0703-2.3359-1.0703l-0.4375 0.058594c-1.2383 0.074218-2.418-0.51953-3.0938-1.5625-0.53906-1-1.582-1.6211-2.7188-1.6211-1.7266 0-3.125 1.3984-3.125 3.125 0 0.82812-0.32812 1.625-0.91406 2.2109-0.58594 0.58594-1.3828 0.91406-2.2109 0.91406-0.89844 0.003906-1.75 0.40234-2.3359 1.0859-0.046874 0.050781-0.11328 0.070312-0.16016 0.11719s-0.078125 0.12891-0.13672 0.17969c-0.14063 0.10156-0.29688 0.1875-0.45703 0.26172-0.15234 0.10547-0.3125 0.19922-0.48047 0.27344-0.23828 0.082031-0.48438 0.13281-0.73438 0.15625-0.125 0.035156-0.25391 0.058593-0.38281 0.078125-0.039062 0-0.070312 0-0.10547-0.019532-0.15625-0.011718-0.3125-0.039062-0.46484-0.078124-0.39453-0.039063-0.77344-0.19141-1.0898-0.4375-0.13672-0.066407-0.26953-0.14453-0.39453-0.23438-0.054687-0.046874-0.078124-0.11719-0.12891-0.16406-0.050781-0.050781-0.11719-0.074219-0.16797-0.12891v-0.003906c-0.58594-0.68359-1.4375-1.082-2.3359-1.0859-1.1562 0-2.2188 0.63672-2.7617 1.6602-0.54297 1.0195-0.47656 2.2578 0.17188 3.2148 0.058594 0.11719 0.10938 0.23828 0.15234 0.36719 0.078125 0.11328 0.14844 0.23047 0.21094 0.35156 0.023437 0.074219 0 0.14844 0.03125 0.22266 0.046874 0.20312 0.078124 0.41406 0.082031 0.625 0.019531 0.19531 0.019531 0.39062 0 0.58203-0.03125 0.19531-0.078125 0.38281-0.14453 0.5625-0.058594 0.19531-0.13281 0.38281-0.22656 0.5625-0.097656 0.16016-0.21094 0.3125-0.33594 0.45312-0.13672 0.16797-0.28906 0.32422-0.45313 0.46094-0.058593 0.042969-0.089843 0.11328-0.15234 0.15234h-0.003907c-0.17187 0.10547-0.35547 0.19531-0.54687 0.26172-0.0625 0.023438-0.10547 0.078126-0.17188 0.10156-1.2461 0.43359-2.0898 1.6016-2.1016 2.9219 0 0.82812-0.32812 1.625-0.91406 2.2109-0.58594 0.58594-1.3828 0.91406-2.2109 0.91406-1.7266 0-3.125 1.3984-3.125 3.125zm31.25 21.875c-2.3086-0.027344-4.5742 0.61719-6.5234 1.8555-1.6445 0.87891-2.7188 2.5391-2.8516 4.3945 0.19141 2.1328 1.5469 3.9844 3.5195 4.8125 3.6719 1.8828 8.0273 1.8828 11.699 0 1.9766-0.82812 3.3359-2.6797 3.5312-4.8125-0.125-1.8438-1.1875-3.4961-2.8125-4.375-1.9609-1.25-4.2383-1.9023-6.5625-1.875zm-3.3164 28.125h6.6328l0.625-9.8047c-2.5898 0.57422-5.2695 0.57422-7.8555 0zm9.375-43.75h-12.109l0.64062 10.219c3.5391-0.98047 7.2812-0.98047 10.82 0zm-22.188 43.75h6.5781l-0.78125-12.5c-3.2031-2.0586-5.1836-5.5664-5.293-9.375 0.050781-3.3047 1.5742-6.4102 4.1523-8.4766l-0.83594-13.398h-12.051zm40.504-43.75h-12.066l-0.83594 13.391c2.5781 2.0664 4.1016 5.1797 4.1523 8.4844 0 0.51562-0.039062 1.0312-0.11719 1.543 0 0.070312-0.035156 0.13281-0.046874 0.19922-0.48047 2.5508-1.8125 4.8672-3.7734 6.5625-0.24219 0.21484-0.51953 0.41406-0.78516 0.625-0.17969 0.14062-0.35156 0.29687-0.54297 0.42969l-0.78125 12.5 6.5781 0.003906z" fill="#fff"/>
</svg>
